<svg width="71" height="53" viewBox="0 0 71 53" fill="none" xmlns="http://www.w3.org/2000/svg">
<path fill-rule="evenodd" clip-rule="evenodd" d="M28.1441 4.22959C23.2487 5.8057 21.0651 11.1501 22.7064 16.2486C23.5393 18.6493 24.8938 20.8072 26.6734 22.5775C29.1147 24.9485 31.7967 27.0351 34.6798 28.808L35.0072 29.004C35.3208 29.1917 35.7131 29.1884 36.0234 28.9955L36.3291 28.8055C39.2082 27.0351 41.8903 24.9485 44.3232 22.5857C46.1112 20.8072 47.4657 18.6493 48.2916 16.2694C49.9388 11.1532 47.7463 5.80627 42.8493 4.22967L42.4951 4.12418C40.2498 3.50665 37.864 3.81094 35.8527 4.94967L35.4952 5.1616L35.144 4.95085C33.0226 3.74712 30.4872 3.47591 28.1441 4.22959ZM34.6662 6.94823L34.9285 7.13638C35.2743 7.38402 35.7408 7.3791 36.0813 7.12421C37.8547 5.79662 40.1497 5.4103 42.2521 6.08479C46.0462 7.30633 47.7729 11.5172 46.4419 15.6519C45.7199 17.7315 44.5249 19.6353 42.9555 21.1965L42.2515 21.8654C40.3547 23.6281 38.3034 25.2238 36.1255 26.63L35.5017 27.0223L35.692 27.1423C32.9406 25.4503 30.3717 23.4517 28.0411 21.1883C26.4801 19.6353 25.285 17.7315 24.5561 15.631C23.2308 11.5132 24.9499 7.30536 28.742 6.08448C30.7444 5.44039 32.9274 5.75973 34.6662 6.94823Z" fill="#4174CB"/>
<circle cx="48.833" cy="8.47583" r="6.9" fill="#FFB745" stroke="white" stroke-width="1.8"/>
<path d="M0.98 38.6758H2.436V46.0678H2.464L7.28 38.6758H8.806V48.4758H7.35V41.0838H7.322L2.506 48.4758H0.98V38.6758ZM12.7431 48.6858C11.6791 48.6858 10.7877 48.4805 10.0691 48.0698L10.6431 46.8938C11.3057 47.2485 12.0197 47.4258 12.7851 47.4258C13.8304 47.4258 14.3531 47.1318 14.3531 46.5438C14.3531 45.9652 13.9004 45.6758 12.9951 45.6758H11.6511V44.4858H12.8971C13.6904 44.4858 14.0871 44.2525 14.0871 43.7858C14.0871 43.3005 13.6671 43.0578 12.8271 43.0578C12.1831 43.0578 11.4784 43.2072 10.7131 43.5058L10.2511 42.2738C11.1097 41.9565 11.9964 41.7978 12.9111 41.7978C13.7417 41.7978 14.3811 41.9425 14.8291 42.2318C15.2864 42.5212 15.5151 42.9318 15.5151 43.4638C15.5151 43.8745 15.3797 44.2152 15.1091 44.4858C14.8384 44.7565 14.4744 44.9245 14.0171 44.9898V45.0318C14.5491 45.0785 14.9644 45.2372 15.2631 45.5078C15.5711 45.7785 15.7251 46.1658 15.7251 46.6698C15.7251 47.3045 15.4731 47.7992 14.9691 48.1538C14.4744 48.5085 13.7324 48.6858 12.7431 48.6858ZM20.1785 48.6858C19.1052 48.6858 18.2325 48.3405 17.5605 47.6498C16.8978 46.9592 16.5665 45.8858 16.5665 44.4298C16.5665 42.3018 17.1358 40.8738 18.2745 40.1458C18.4425 40.0338 18.6525 39.9312 18.9045 39.8378C19.1658 39.7352 19.3945 39.6558 19.5905 39.5998C19.7958 39.5438 20.0572 39.4785 20.3745 39.4038C20.7012 39.3198 20.9252 39.2592 21.0465 39.2218C21.5318 39.0912 21.7792 38.8905 21.7885 38.6198H23.1465C23.1465 39.1332 23.0438 39.5158 22.8385 39.7678C22.6425 40.0105 22.3158 40.1972 21.8585 40.3278C21.6812 40.3838 21.3872 40.4585 20.9765 40.5518C20.5752 40.6358 20.2065 40.7292 19.8705 40.8318C19.5345 40.9252 19.2592 41.0278 19.0445 41.1398C18.3445 41.5318 17.9292 42.3392 17.7985 43.5618H17.8405C18.0738 43.0205 18.4285 42.6052 18.9045 42.3158C19.3805 42.0265 19.9405 41.8818 20.5845 41.8818C21.5365 41.8818 22.2972 42.1852 22.8665 42.7918C23.4452 43.3985 23.7345 44.1918 23.7345 45.1718C23.7345 46.2172 23.4125 47.0665 22.7685 47.7198C22.1245 48.3638 21.2612 48.6858 20.1785 48.6858ZM18.6945 46.7818C19.0958 47.1552 19.5952 47.3418 20.1925 47.3418C20.7898 47.3418 21.2845 47.1552 21.6765 46.7818C22.0778 46.3992 22.2785 45.8858 22.2785 45.2418C22.2785 44.5978 22.0778 44.0892 21.6765 43.7158C21.2845 43.3332 20.7898 43.1418 20.1925 43.1418C19.5952 43.1418 19.0958 43.3332 18.6945 43.7158C18.3025 44.0892 18.1065 44.5978 18.1065 45.2418C18.1065 45.8858 18.3025 46.3992 18.6945 46.7818ZM24.9982 51.2758V42.0078H26.3702V42.9598H26.3982C26.8462 42.1852 27.5742 41.7978 28.5822 41.7978C29.4689 41.7978 30.2155 42.1105 30.8222 42.7358C31.4289 43.3612 31.7322 44.1965 31.7322 45.2418C31.7322 46.2872 31.4289 47.1225 30.8222 47.7478C30.2155 48.3732 29.4689 48.6858 28.5822 48.6858C27.5742 48.6858 26.8462 48.2985 26.3982 47.5238H26.3702V51.2758H24.9982ZM26.8462 46.7678C27.2102 47.1505 27.6909 47.3418 28.2882 47.3418C28.8855 47.3418 29.3662 47.1505 29.7302 46.7678C30.0942 46.3758 30.2762 45.8672 30.2762 45.2418C30.2762 44.6165 30.0942 44.1125 29.7302 43.7298C29.3662 43.3378 28.8855 43.1418 28.2882 43.1418C27.6909 43.1418 27.2102 43.3378 26.8462 43.7298C26.4822 44.1125 26.3002 44.6165 26.3002 45.2418C26.3002 45.8672 26.4822 46.3758 26.8462 46.7678ZM35.7263 48.6858C34.8396 48.6858 34.0929 48.3732 33.4863 47.7478C32.8796 47.1225 32.5763 46.2872 32.5763 45.2418C32.5763 44.1965 32.8796 43.3612 33.4863 42.7358C34.0929 42.1105 34.8396 41.7978 35.7263 41.7978C36.7343 41.7978 37.4623 42.1852 37.9103 42.9598H37.9383V42.0078H39.3103V48.4758H37.9383V47.5238H37.9103C37.4623 48.2985 36.7343 48.6858 35.7263 48.6858ZM34.5783 46.7678C34.9423 47.1505 35.4229 47.3418 36.0203 47.3418C36.6176 47.3418 37.0983 47.1505 37.4623 46.7678C37.8263 46.3758 38.0083 45.8672 38.0083 45.2418C38.0083 44.6165 37.8263 44.1125 37.4623 43.7298C37.0983 43.3378 36.6176 43.1418 36.0203 43.1418C35.4229 43.1418 34.9423 43.3378 34.5783 43.7298C34.2143 44.1125 34.0323 44.6165 34.0323 45.2418C34.0323 45.8672 34.2143 46.3758 34.5783 46.7678ZM45.6563 42.0078H47.0283V48.4758H45.6563V45.7598H42.3663V48.4758H40.9943V42.0078H42.3663V44.4718H45.6563V42.0078ZM53.3672 42.0078H54.7392V48.4758H53.3672V45.7598H50.0772V48.4758H48.7052V42.0078H50.0772V44.4718H53.3672V42.0078ZM57.0042 42.7778C57.6762 42.1245 58.5208 41.7978 59.5382 41.7978C60.5555 41.7978 61.4002 42.1245 62.0722 42.7778C62.7442 43.4312 63.0802 44.2525 63.0802 45.2418C63.0802 46.2312 62.7442 47.0525 62.0722 47.7058C61.4002 48.3592 60.5555 48.6858 59.5382 48.6858C58.5208 48.6858 57.6762 48.3592 57.0042 47.7058C56.3322 47.0525 55.9962 46.2312 55.9962 45.2418C55.9962 44.2525 56.3322 43.4312 57.0042 42.7778ZM61.0362 43.7158C60.6535 43.3332 60.1542 43.1418 59.5382 43.1418C58.9222 43.1418 58.4182 43.3332 58.0262 43.7158C57.6435 44.0985 57.4522 44.6072 57.4522 45.2418C57.4522 45.8765 57.6435 46.3852 58.0262 46.7678C58.4182 47.1505 58.9222 47.3418 59.5382 47.3418C60.1542 47.3418 60.6535 47.1505 61.0362 46.7678C61.4282 46.3852 61.6242 45.8765 61.6242 45.2418C61.6242 44.6072 61.4282 44.0985 61.0362 43.7158ZM67.2299 41.7978C68.2005 41.7978 68.9565 42.1105 69.4979 42.7358C70.0485 43.3518 70.3239 44.1872 70.3239 45.2418V45.4658H65.3119C65.3399 46.0352 65.5312 46.4972 65.8859 46.8518C66.2499 47.1972 66.7119 47.3698 67.2719 47.3698C68.0372 47.3698 68.6999 46.9918 69.2599 46.2358L70.2259 47.1458C69.4792 48.1725 68.5039 48.6858 67.2999 48.6858C66.2732 48.6858 65.4519 48.3732 64.8359 47.7478C64.2292 47.1132 63.9259 46.2825 63.9259 45.2558C63.9259 44.2478 64.2199 43.4218 64.8079 42.7778C65.4052 42.1245 66.2125 41.7978 67.2299 41.7978ZM67.1459 43.0578C66.6699 43.0578 66.2779 43.1792 65.9699 43.4218C65.6619 43.6645 65.4659 44.0145 65.3819 44.4718H68.8399C68.8119 44.0238 68.6439 43.6785 68.3359 43.4358C68.0372 43.1838 67.6405 43.0578 67.1459 43.0578Z" fill="#333333"/>
</svg>
