<svg width="54" height="53" viewBox="0 0 54 53" fill="none" xmlns="http://www.w3.org/2000/svg">
<path fill-rule="evenodd" clip-rule="evenodd" d="M14.8371 3.82377L14.7018 3.80963C14.2096 3.79163 13.7675 4.13974 13.6812 4.63858L13.667 4.77385C13.649 5.26609 13.9971 5.70814 14.496 5.79447L16.508 6.14246L17.7274 20.6701L17.7526 20.8884C17.9979 22.545 19.4228 23.7905 21.1198 23.7905H35.6692L35.8883 23.7835C37.4834 23.6816 38.806 22.4753 39.0388 20.8729L40.3042 12.1283L40.326 11.9275C40.4425 10.3287 39.176 8.94112 37.5452 8.94112H18.7493L18.4363 5.20548L18.4128 5.05767C18.3215 4.67325 18.009 4.37276 17.6104 4.30377L14.8371 3.82377ZM20.9653 21.782C20.3049 21.7097 19.7768 21.1794 19.7204 20.5033L18.9173 10.9411H37.5452L37.6627 10.9498C38.0837 11.0124 38.3879 11.406 38.3248 11.842L37.0595 20.5859L37.0277 20.7422C36.8673 21.3537 36.3134 21.7905 35.6692 21.7905H21.1198L20.9653 21.782ZM18.8777 27.9229C18.8777 26.8081 19.7813 25.9029 20.8964 25.9029C22.0113 25.9029 22.9164 26.8079 22.9164 27.9229C22.9164 29.038 22.0112 29.9415 20.8964 29.9415C19.7814 29.9415 18.8777 29.0378 18.8777 27.9229ZM33.8796 27.9229C33.8796 26.8079 34.7846 25.9029 35.8996 25.9029C37.0145 25.9029 37.9196 26.8079 37.9196 27.9229C37.9196 29.038 37.0144 29.9415 35.8996 29.9415C34.7848 29.9415 33.8796 29.038 33.8796 27.9229Z" fill="#4174CB"/>
<circle cx="40.333" cy="8.47583" r="6.9" fill="#FFB745" stroke="white" stroke-width="1.8"/>
<path d="M9.016 48.4758H6.86L2.436 43.5898V48.4758H0.98V38.6758H2.436V43.0298L6.328 38.6758H8.344L4.088 43.1698L9.016 48.4758ZM9.82253 42.7778C10.4945 42.1245 11.3392 41.7978 12.3565 41.7978C13.3739 41.7978 14.2185 42.1245 14.8905 42.7778C15.5625 43.4312 15.8985 44.2525 15.8985 45.2418C15.8985 46.2312 15.5625 47.0525 14.8905 47.7058C14.2185 48.3592 13.3739 48.6858 12.3565 48.6858C11.3392 48.6858 10.4945 48.3592 9.82253 47.7058C9.15053 47.0525 8.81453 46.2312 8.81453 45.2418C8.81453 44.2525 9.15053 43.4312 9.82253 42.7778ZM13.8545 43.7158C13.4719 43.3332 12.9725 43.1418 12.3565 43.1418C11.7405 43.1418 11.2365 43.3332 10.8445 43.7158C10.4619 44.0985 10.2705 44.6072 10.2705 45.2418C10.2705 45.8765 10.4619 46.3852 10.8445 46.7678C11.2365 47.1505 11.7405 47.3418 12.3565 47.3418C12.9725 47.3418 13.4719 47.1505 13.8545 46.7678C14.2465 46.3852 14.4425 45.8765 14.4425 45.2418C14.4425 44.6072 14.2465 44.0985 13.8545 43.7158ZM17.1642 51.2758V42.0078H18.5362V42.9598H18.5642C19.0122 42.1852 19.7402 41.7978 20.7482 41.7978C21.6349 41.7978 22.3816 42.1105 22.9882 42.7358C23.5949 43.3612 23.8982 44.1965 23.8982 45.2418C23.8982 46.2872 23.5949 47.1225 22.9882 47.7478C22.3816 48.3732 21.6349 48.6858 20.7482 48.6858C19.7402 48.6858 19.0122 48.2985 18.5642 47.5238H18.5362V51.2758H17.1642ZM19.0122 46.7678C19.3762 47.1505 19.8569 47.3418 20.4542 47.3418C21.0516 47.3418 21.5322 47.1505 21.8962 46.7678C22.2602 46.3758 22.4422 45.8672 22.4422 45.2418C22.4422 44.6165 22.2602 44.1125 21.8962 43.7298C21.5322 43.3378 21.0516 43.1418 20.4542 43.1418C19.8569 43.1418 19.3762 43.3378 19.0122 43.7298C18.6482 44.1125 18.4662 44.6165 18.4662 45.2418C18.4662 45.8672 18.6482 46.3758 19.0122 46.7678ZM27.0028 48.6858C25.9388 48.6858 25.0475 48.4805 24.3288 48.0698L24.9028 46.8938C25.5655 47.2485 26.2795 47.4258 27.0448 47.4258C28.0902 47.4258 28.6128 47.1318 28.6128 46.5438C28.6128 45.9652 28.1602 45.6758 27.2548 45.6758H25.9108V44.4858H27.1568C27.9502 44.4858 28.3468 44.2525 28.3468 43.7858C28.3468 43.3005 27.9268 43.0578 27.0868 43.0578C26.4428 43.0578 25.7382 43.2072 24.9728 43.5058L24.5108 42.2738C25.3695 41.9565 26.2562 41.7978 27.1708 41.7978C28.0015 41.7978 28.6408 41.9425 29.0888 42.2318C29.5462 42.5212 29.7748 42.9318 29.7748 43.4638C29.7748 43.8745 29.6395 44.2152 29.3688 44.4858C29.0982 44.7565 28.7342 44.9245 28.2768 44.9898V45.0318C28.8088 45.0785 29.2242 45.2372 29.5228 45.5078C29.8308 45.7785 29.9848 46.1658 29.9848 46.6698C29.9848 47.3045 29.7328 47.7992 29.2288 48.1538C28.7342 48.5085 27.9922 48.6858 27.0028 48.6858ZM31.2463 48.4758V42.0078H32.6183V46.3058H32.6463L35.8523 42.0078H37.1263V48.4758H35.7543V44.1778H35.7263L32.5203 48.4758H31.2463ZM43.4688 42.0078H44.8408V48.4758H43.4688V45.7598H40.1788V48.4758H38.8068V42.0078H40.1788V44.4718H43.4688V42.0078ZM49.2477 48.6858C48.3611 48.6858 47.6144 48.3732 47.0077 47.7478C46.4011 47.1225 46.0977 46.2872 46.0977 45.2418C46.0977 44.1965 46.4011 43.3612 47.0077 42.7358C47.6144 42.1105 48.3611 41.7978 49.2477 41.7978C50.2557 41.7978 50.9837 42.1852 51.4317 42.9598H51.4597V42.0078H52.8317V48.4758H51.4597V47.5238H51.4317C50.9837 48.2985 50.2557 48.6858 49.2477 48.6858ZM48.0997 46.7678C48.4637 47.1505 48.9444 47.3418 49.5417 47.3418C50.1391 47.3418 50.6197 47.1505 50.9837 46.7678C51.3477 46.3758 51.5297 45.8672 51.5297 45.2418C51.5297 44.6165 51.3477 44.1125 50.9837 43.7298C50.6197 43.3378 50.1391 43.1418 49.5417 43.1418C48.9444 43.1418 48.4637 43.3378 48.0997 43.7298C47.7357 44.1125 47.5537 44.6165 47.5537 45.2418C47.5537 45.8672 47.7357 46.3758 48.0997 46.7678Z" fill="#333333"/>
</svg>
