<svg width="18" height="13" viewBox="0 0 18 13" fill="none" xmlns="http://www.w3.org/2000/svg">
<path d="M1 2.47583C0.447715 2.47583 0 2.02811 0 1.47583C0 0.923545 0.447715 0.47583 1 0.47583H11C11.5523 0.47583 12 0.923545 12 1.47583C12 2.02811 11.5523 2.47583 11 2.47583H1Z" fill="white"/>
<path d="M0 6.47583C0 7.02811 0.447716 7.47583 1 7.47583H17C17.5523 7.47583 18 7.02811 18 6.47583C18 5.92355 17.5523 5.47583 17 5.47583H1C0.447715 5.47583 0 5.92355 0 6.47583Z" fill="white"/>
<path d="M0 11.4758C0 12.0281 0.447715 12.4758 1 12.4758H11C11.5523 12.4758 12 12.0281 12 11.4758C12 10.9235 11.5523 10.4758 11 10.4758H1C0.447715 10.4758 0 10.9235 0 11.4758Z" fill="white"/>
</svg>
