<svg width="10" height="16" viewBox="0 0 10 16" fill="none" xmlns="http://www.w3.org/2000/svg">
<path d="M5.72731 8.24242C7.99974 8.24242 9.84852 6.39365 9.84852 4.12121C9.84852 1.84878 7.99974 0 5.72731 0C5.71844 0 5.70961 0.000145455 5.70084 0.000484848H2.33434C2.334 0.000484848 2.33371 0.000436364 2.33342 0.000436364C1.93177 0.000436364 1.60614 0.326061 1.60614 0.727709V0.727758V7.51515V9.69697H0.878823C0.477175 9.69697 0.15155 10.0226 0.15155 10.4242C0.15155 10.8259 0.477175 11.1515 0.878823 11.1515H1.6061V15.2727C1.6061 15.6744 1.93172 16 2.33337 16C2.73502 16 3.06064 15.6744 3.06064 15.2727V11.1515H5.72731C6.12896 11.1515 6.45458 10.8259 6.45458 10.4242C6.45458 10.0226 6.12896 9.69697 5.72731 9.69697H3.06064V8.24242H5.72731ZM5.72731 1.45503C5.73516 1.45503 5.74302 1.45488 5.75077 1.45464C7.21046 1.46725 8.39398 2.65862 8.39398 4.12121C8.39398 5.59161 7.19771 6.78788 5.72731 6.78788H3.06064V1.45503H5.72731Z" fill="#333333"/>
</svg>
