<svg width="6" height="8" viewBox="0 0 6 8" fill="none" xmlns="http://www.w3.org/2000/svg">
<path d="M3.36368 4.12121C4.4999 4.12121 5.42429 3.19682 5.42429 2.06061C5.42429 0.924388 4.4999 0 3.36368 0C3.35925 0 3.35484 7.27273e-05 3.35045 0.000242424H1.6672C1.66703 0.000242424 1.66688 0.000218182 1.66674 0.000218182C1.46591 0.000218182 1.3031 0.16303 1.3031 0.363855V0.363879V3.75758V4.84848H0.939442C0.738618 4.84848 0.575806 5.0113 0.575806 5.21212C0.575806 5.41295 0.738618 5.57576 0.939442 5.57576H1.30308V7.63636C1.30308 7.83719 1.46589 8 1.66671 8C1.86754 8 2.03035 7.83719 2.03035 7.63636V5.57576H3.36368C3.56451 5.57576 3.72732 5.41295 3.72732 5.21212C3.72732 5.0113 3.56451 4.84848 3.36368 4.84848H2.03035V4.12121H3.36368ZM3.36368 0.727515C3.36761 0.727515 3.37154 0.727442 3.37542 0.727321C4.10526 0.733624 4.69702 1.32931 4.69702 2.06061C4.69702 2.79581 4.09888 3.39394 3.36368 3.39394H2.03035V0.727515H3.36368Z" fill="#BDBDBD"/>
</svg>
