<svg width="24" height="21" viewBox="0 0 24 21" fill="none" xmlns="http://www.w3.org/2000/svg">
<path d="M21.8112 0.441789C21.5303 0.462225 21.2546 0.528124 20.9949 0.636914H20.9914C20.742 0.735789 19.5564 1.23454 17.7539 1.99054L11.2946 4.71091C6.65973 6.66216 2.10361 8.58366 2.10361 8.58366L2.15786 8.56266C2.15786 8.56266 1.84373 8.66591 1.51561 8.89079C1.31289 9.01978 1.13846 9.18856 1.00286 9.38691C0.841857 9.62316 0.712357 9.98454 0.760482 10.3582C0.839232 10.9899 1.24873 11.3688 1.54273 11.5779C1.84023 11.7897 2.12373 11.8885 2.12373 11.8885H2.13073L6.40336 13.3279C6.59498 13.943 7.70536 17.5935 7.97223 18.4344C8.12973 18.9367 8.28286 19.2508 8.47448 19.4905C8.56723 19.613 8.67573 19.7154 8.80611 19.7977C8.87388 19.8371 8.94615 19.8682 9.02136 19.8904L8.97761 19.8799C8.99073 19.8834 9.00123 19.8939 9.01086 19.8974C9.04586 19.907 9.06948 19.9105 9.11411 19.9175C9.79048 20.1223 10.3339 19.7023 10.3339 19.7023L10.3645 19.6778L12.8871 17.3809L17.1151 20.6245L17.2114 20.6657C18.0925 21.0524 18.985 20.8372 19.4566 20.4574C19.9317 20.075 20.1164 19.5859 20.1164 19.5859L20.147 19.5072L23.4142 2.76929C23.507 2.35629 23.5306 1.96954 23.4282 1.59416C23.3226 1.21426 23.0789 0.88752 22.7449 0.678039C22.4644 0.507515 22.1391 0.425207 21.8112 0.441789ZM21.7229 2.23554C21.7194 2.29066 21.7299 2.28454 21.7054 2.39041V2.40004L18.4687 18.9638C18.4547 18.9874 18.4311 19.039 18.3664 19.0907C18.2981 19.1449 18.2439 19.179 17.9595 19.0662L12.7882 15.1015L9.66448 17.9488L10.3207 13.7575L18.7697 5.88254C19.118 5.55879 19.0016 5.49054 19.0016 5.49054C19.0261 5.09329 18.4757 5.37416 18.4757 5.37416L7.82173 11.9743L7.81823 11.9568L2.71173 10.2374V10.2339L2.69861 10.2313C2.70756 10.2283 2.71632 10.2248 2.72486 10.2208L2.75286 10.2068L2.77998 10.1972C2.77998 10.1972 7.33961 8.27566 11.9745 6.32441C14.295 5.34704 16.633 4.36266 18.4311 3.60316C20.2292 2.84804 21.5584 2.29416 21.6336 2.26441C21.7054 2.23641 21.6712 2.23641 21.7229 2.23641V2.23554Z" fill="#153E84"/>
</svg>
