<svg width="38" height="53" viewBox="0 0 38 53" fill="none" xmlns="http://www.w3.org/2000/svg">
<path fill-rule="evenodd" clip-rule="evenodd" d="M19.0057 3.14246C15.0937 3.14246 11.9224 6.32731 11.9224 10.256C11.9224 14.1847 15.0937 17.3696 19.0057 17.3696C22.9178 17.3696 26.0891 14.1847 26.0891 10.256C26.0891 6.32731 22.9178 3.14246 19.0057 3.14246ZM19.0057 5.07268C21.8562 5.07268 24.1671 7.39334 24.1671 10.256C24.1671 13.1187 21.8562 15.4394 19.0057 15.4394C16.1552 15.4394 13.8444 13.1187 13.8444 10.256C13.8444 7.39334 16.1552 5.07268 19.0057 5.07268ZM16.1067 20.237C15.0698 20.309 14.0216 20.457 12.9877 20.6786C10.9922 21.0896 9.3958 21.9109 8.71631 23.2756C8.46003 23.8094 8.33118 24.3808 8.33336 24.9594C8.33259 25.5338 8.46039 26.106 8.70749 26.6295C9.35992 27.9786 10.7704 28.742 12.675 29.1652L13.0162 29.2364C14.022 29.4633 15.0705 29.6161 16.1259 29.6878C16.2158 29.7142 16.4301 29.7387 16.6639 29.7506L16.8563 29.7578C16.9552 29.7601 17.0674 29.7607 17.2347 29.7607C18.7518 29.8442 20.3246 29.8199 21.89 29.6866C22.7243 29.6295 23.5641 29.5204 24.397 29.3606L25.0201 29.2312C27.0767 28.8255 28.6168 28.0539 29.2914 26.631C29.7917 25.5746 29.7917 24.3487 29.2917 23.2928C28.6187 21.8735 27.0983 21.1083 25.0045 20.677C24.183 20.5016 23.3483 20.3718 22.5076 20.289L21.8929 20.237C19.9679 20.0672 18.0318 20.0672 16.1067 20.237ZM21.7247 22.1598L21.7416 22.1611C22.7065 22.229 23.6655 22.3645 24.6116 22.5664C26.1668 22.8868 27.2222 23.418 27.5561 24.1222C27.8075 24.6532 27.8075 25.2702 27.5559 25.8016C27.2439 26.4596 26.296 26.968 24.926 27.2786L24.626 27.3421C23.6613 27.5574 22.7055 27.6961 21.7434 27.7621C20.2506 27.889 18.7666 27.912 17.2864 27.8319L16.7615 27.8229C16.6159 27.8155 16.4931 27.8014 16.3793 27.7786C15.4783 27.7106 14.6675 27.603 13.8804 27.4469L13.4103 27.3474C11.8503 27.0416 10.7855 26.5082 10.4403 25.7944C10.3195 25.5384 10.255 25.2495 10.2554 24.957C10.2543 24.6662 10.318 24.3838 10.4416 24.1263C10.7772 23.4523 11.9056 22.8719 13.3814 22.5678C14.3343 22.3637 15.2928 22.2283 16.2572 22.1612C18.088 21.9998 19.9116 21.9998 21.7247 22.1598Z" fill="#4174CB"/>
<path d="M6.118 43.2678C6.72467 43.3612 7.20533 43.6225 7.56 44.0518C7.91467 44.4812 8.092 45.0272 8.092 45.6898C8.092 46.5672 7.80267 47.2532 7.224 47.7478C6.65467 48.2332 5.94067 48.4758 5.082 48.4758H0.98V38.6758H4.704C5.56267 38.6758 6.25333 38.8998 6.776 39.3478C7.29867 39.7958 7.56 40.4025 7.56 41.1678C7.56 41.6625 7.434 42.0965 7.182 42.4698C6.93 42.8432 6.57533 43.0998 6.118 43.2398V43.2678ZM4.396 40.0478H2.436V42.7638H4.27C5.40867 42.7638 5.978 42.3112 5.978 41.4058C5.978 40.9578 5.83333 40.6218 5.544 40.3978C5.264 40.1645 4.88133 40.0478 4.396 40.0478ZM4.788 47.1038C5.32933 47.1038 5.74933 46.9685 6.048 46.6978C6.356 46.4178 6.51 46.0492 6.51 45.5918C6.51 45.1345 6.35133 44.7705 6.034 44.4998C5.726 44.2198 5.264 44.0798 4.648 44.0798H2.436V47.1038H4.788ZM10.0823 42.7778C10.7543 42.1245 11.599 41.7978 12.6163 41.7978C13.6336 41.7978 14.4783 42.1245 15.1503 42.7778C15.8223 43.4312 16.1583 44.2525 16.1583 45.2418C16.1583 46.2312 15.8223 47.0525 15.1503 47.7058C14.4783 48.3592 13.6336 48.6858 12.6163 48.6858C11.599 48.6858 10.7543 48.3592 10.0823 47.7058C9.4103 47.0525 9.0743 46.2312 9.0743 45.2418C9.0743 44.2525 9.4103 43.4312 10.0823 42.7778ZM14.1143 43.7158C13.7316 43.3332 13.2323 43.1418 12.6163 43.1418C12.0003 43.1418 11.4963 43.3332 11.1043 43.7158C10.7216 44.0985 10.5303 44.6072 10.5303 45.2418C10.5303 45.8765 10.7216 46.3852 11.1043 46.7678C11.4963 47.1505 12.0003 47.3418 12.6163 47.3418C13.2323 47.3418 13.7316 47.1505 14.1143 46.7678C14.5063 46.3852 14.7023 45.8765 14.7023 45.2418C14.7023 44.6072 14.5063 44.0985 14.1143 43.7158ZM22.268 39.5158C22.268 40.1225 22.0907 40.6032 21.736 40.9578C21.3907 41.3032 20.9333 41.4758 20.364 41.4758C19.7947 41.4758 19.3327 41.3032 18.978 40.9578C18.6327 40.6032 18.46 40.1225 18.46 39.5158H19.412C19.4307 39.8332 19.524 40.0852 19.692 40.2718C19.86 40.4492 20.084 40.5378 20.364 40.5378C20.644 40.5378 20.868 40.4492 21.036 40.2718C21.204 40.0852 21.2973 39.8332 21.316 39.5158H22.268ZM17.424 48.4758V42.0078H18.796V46.3058H18.824L22.03 42.0078H23.304V48.4758H21.932V44.1778H21.904L18.698 48.4758H17.424ZM30.0805 42.0078V43.2678H27.8265V48.4758H26.4545V43.2678H24.2145V42.0078H30.0805ZM30.9865 48.4758V42.0078H32.3585V46.3058H32.3865L35.5925 42.0078H36.8665V48.4758H35.4945V44.1778H35.4665L32.2605 48.4758H30.9865Z" fill="#333333"/>
</svg>
